<svg xmlns="http://www.w3.org/2000/svg" xmlns:svg="http://www.w3.org/2000/svg" id="svg921" width="200" height="200" version="1.1"><metadata id="metadata927"/><style id="style907"/><path id="path917" fill="#74b01b" d="m92.9 195c-13.1-1.6-23-7.8-26.2-16.2-1.5-3.9-2-8.5-1.1-8.5 0.2 0 2 1.4 3.9 3.1 4.2 3.7 7.5 5.4 12.7 6.7 11.3 2.7 24.2-3.7 29.8-14.8 2-4 3.3-7.4 3.3-12.3 0-5.1-1.2-8.8-3.2-12.5-4.2-7.9-14.3-16-24.1-19-4.3-1.3-7-1.7-14.3-1.6-14.9 0.1-26.1 4.1-34.5 12.6-8 8-11.5 17.5-11.5 30.8 0 7.5-0.7 8.9-2.1 4.3-2.9-9.8-3.8-33.5-1.8-45.1C26.8 105.6 31.2 92 38.5 77 52 49.1 72.3 27.2 94.7 16.3 105.7 11 113.6 8.9 123.2 8.9c13.3 0 23 3.8 32.5 12.7 21.8 20.5 26.6 61.1 12 103.3-5.9 17.1-18.3 38.9-28.3 49.9-4.4 4.8-14.5 12.3-20.7 15.5-7.4 3.7-17.9 5.6-25.8 4.6z" style="fill-opacity:1;fill-rule:nonzero;fill:#000"/></svg>