<svg xmlns="http://www.w3.org/2000/svg" xmlns:svg="http://www.w3.org/2000/svg" xmlns:xlink="http://www.w3.org/1999/xlink" id="svg839" width="40pt" height="40pt" preserveAspectRatio="xMidYMid meet" version="1.0" viewBox="0 0 40 40"><defs id="defs843"><linearGradient id="linearGradient1031"><stop id="stop1027" offset="0" style="stop-color:#000;stop-opacity:1"/><stop id="stop1029" offset="1" style="stop-color:#000;stop-opacity:0"/></linearGradient><linearGradient id="linearGradient965"><stop id="stop961" offset="0" style="stop-color:#000;stop-opacity:1"/><stop id="stop963" offset="1" style="stop-color:#000;stop-opacity:0"/></linearGradient><linearGradient id="linearGradient1610-3"><stop id="stop1623" offset="0" style="stop-color:#e1e1e1;stop-opacity:1"/><stop style="stop-color:#e1e1e1;stop-opacity:.81568629" id="stop1628" offset=".181"/><stop id="stop1630" offset=".572" style="stop-color:#ccc;stop-opacity:.7647059"/><stop style="stop-color:#b5b5b5;stop-opacity:.85882354" id="stop1632" offset=".744"/><stop id="stop1625" offset="1" style="stop-color:#a1a1a1;stop-opacity:1"/></linearGradient><linearGradient id="linearGradient1636" x1="25.754" x2="18.342" y1="10.237" y2="24.691" gradientTransform="matrix(1.0529102,-0.56080299,0.56080299,1.0529102,-13.154729,10.294031)" gradientUnits="userSpaceOnUse" xlink:href="#linearGradient1610-3"/><linearGradient id="linearGradient967" x1="5.755" x2="11.971" y1="12.835" y2="24.115" gradientUnits="userSpaceOnUse" xlink:href="#linearGradient965"/><linearGradient id="linearGradient1033-8" x1="12.404" x2="15.04" y1="21.503" y2="19.943" gradientTransform="scale(1.3333333)" gradientUnits="userSpaceOnUse" xlink:href="#linearGradient1031"/><linearGradient id="linearGradient1081" x1="0" x2="18.22" y1="0" y2="22.355" gradientUnits="userSpaceOnUse" xlink:href="#linearGradient1031"/></defs><metadata id="metadata833">Created by potrace 1.15, written by Peter Selinger 2001-2017</metadata><path id="path1634" d="m 3.3477015,13.994993 c -0.8096917,0.681657 -1.3633328,1.974969 -1.6337434,3.817902 -0.5299203,3.623017 0.1772007,8.967538 1.7247639,13.075189 0.3385001,0.897378 0.5242273,1.305591 0.9976718,2.194485 0.4813346,0.903708 0.6914508,1.238713 1.1262513,1.793191 1.3183613,1.67185 2.7488982,2.257 4.2271164,1.72958 0.7031455,-0.250894 1.2804935,-0.720122 1.7420055,-1.412783 0.438591,-0.658332 0.733865,-1.341754 1.064102,-2.465363 0.290011,-0.984903 0.441645,-1.705929 0.770211,-3.671762 0.103862,-0.632183 0.227337,-1.328705 0.275509,-1.54771 l 0.08349,-0.40263 6.071639,-3.233887 6.071639,-3.233888 0.380704,0.155391 c 0.208616,0.08223 0.906189,0.392158 1.553242,0.684615 1.907113,0.866977 2.596147,1.137077 3.687013,1.459397 0.923041,0.269075 1.519022,0.376373 2.202769,0.392549 0.89158,0.01958 1.630737,-0.193444 2.255835,-0.656336 0.293501,-0.216634 0.511866,-0.437453 0.708672,-0.716603 1.22941,-1.732479 0.354974,-4.778664 -2.414713,-8.425563 C 32.013696,10.59705 28.794174,7.7063904 25.906553,6.0399243 24.974117,5.5032646 24.180306,5.1495152 23.329997,4.8860737 22.325847,4.5777872 21.61465,4.5160133 20.899058,4.672116 c -1.821435,0.2636785 -2.809867,0.7954654 -4.589629,2.4160416 -0.531716,0.7603232 -0.757078,1.4155745 -1.245484,2.2259925 -0.09857,0.106511 -0.233136,0.181174 -2.329443,1.2977129 -2.09631,1.116542 -2.233332,1.186577 -2.376747,1.208907 -0.8987215,-0.0098 -1.5930617,-0.186903 -2.5359337,-0.208749 -1.450773,0.214323 -2.7842824,0.895899 -4.4740977,2.383013 z" style="fill:url(#linearGradient1636);fill-opacity:1;stroke:#000;stroke-width:1.40850005;stroke-linecap:round;stroke-linejoin:round;stroke-miterlimit:4;stroke-dasharray:none;stroke-opacity:1"/><path d="m 6.9127049,17.37543 1.4550061,2.70403 -2.6336442,1.493891 1.1921699,2.215566 2.6336446,-1.49389 1.4550057,2.704029 2.158995,-1.224654 -1.455006,-2.704029 2.632546,-1.493269 -1.19217,-2.215566 -2.632546,1.493267 -1.4550058,-2.704029 z" style="fill:url(#linearGradient967);stroke:#000;stroke-width:1.40850005;stroke-linecap:round;stroke-linejoin:round;stroke-miterlimit:4;stroke-dasharray:none;stroke-opacity:1;fill-opacity:1" id="rect907"/><circle style="fill:none;fill-opacity:1;stroke:#000;stroke-width:.82500003;stroke-linejoin:round;stroke-miterlimit:4;stroke-dasharray:none;stroke-opacity:1" id="circle1860-2" cx="14.494" cy="20.254" r="1.207" transform="rotate(-28.040741)"/><circle id="circle984" cx="11.704" cy="23.043" r="1.207" transform="rotate(-28.040741)" style="fill:none;fill-opacity:1;stroke:#000;stroke-width:.82500003;stroke-linejoin:round;stroke-miterlimit:4;stroke-dasharray:none;stroke-opacity:1"/><circle id="circle986" cx="17.284" cy="23.043" r="1.207" transform="rotate(-28.040741)" style="fill:url(#linearGradient1081);fill-opacity:1;stroke:#000;stroke-width:.825;stroke-linejoin:round;stroke-miterlimit:4;stroke-dasharray:none;stroke-opacity:1;font-variation-settings:normal;opacity:1;vector-effect:none;stroke-linecap:butt;stroke-dashoffset:0;stop-color:#000;stop-opacity:1"/><circle style="fill:none;fill-opacity:1;stroke:#000;stroke-width:.82500003;stroke-linejoin:round;stroke-miterlimit:4;stroke-dasharray:none;stroke-opacity:1" id="circle988" cx="14.494" cy="25.833" r="1.207" transform="rotate(-28.040741)"/></svg>