<svg xmlns="http://www.w3.org/2000/svg" xmlns:svg="http://www.w3.org/2000/svg" xmlns:xlink="http://www.w3.org/1999/xlink" id="svg77" width="40" height="40" version="1.1"><metadata id="metadata81"/><defs id="defs13"><linearGradient id="c" x2="1" gradientTransform="matrix(-68.102,117.955,117.955,68.102,336.697,417.529)" gradientUnits="userSpaceOnUse"><stop id="stop1013" offset="0" stop-color="#a3a5a8"/><stop id="stop1015" offset="1" stop-color="#231f20"/></linearGradient><clipPath id="a"><path id="path2" d="M0 792h612V0H0z"/></clipPath><clipPath id="b"><path id="path5" d="M267.6 560.9h45.02V403.63H267.6z"/></clipPath><linearGradient id="c-7" x2="1" gradientTransform="matrix(-68.102,117.955,117.955,68.102,336.697,417.529)" gradientUnits="userSpaceOnUse"><stop id="stop8" offset="0" stop-color="#a3a5a8"/><stop id="stop10" offset="1" stop-color="#231f20"/></linearGradient><linearGradient id="linearGradient1003" x1="18.477" x2="19.986" y1="27.68" y2="10.76" gradientUnits="userSpaceOnUse" xlink:href="#c-7"/></defs><path style="stroke-width:.119996" id="path23" fill="#fff" d="m 36.63302,11.5628 h -4.92107 l -8.1917,-4.25544 h 4.55686 z"/><path id="path25" fill="none" stroke="#000" stroke-linejoin="round" stroke-width=".72" d="m 36.474288,11.443751 h -4.92107 l -8.1917,-4.2554385 h 4.55686 z"/><path style="stroke-width:.119996;fill-opacity:1;fill:url(#linearGradient1003)" id="path27" fill="#fff" d="m 13.64786,26.44018 8.12515,5.74294 V 11.5866 L 13.64907,7.2074 Z"/><path id="path29" fill="none" stroke="#000" stroke-linejoin="round" stroke-width=".72" d="m 13.64786,26.44018 8.12515,5.74294 V 11.5866 L 13.64907,7.2074 Z"/><path style="stroke-width:.119996" id="path31" fill="#e3e3e3" d="M 26.69408,32.08792 H 21.7718 V 11.539 h 4.92228 z"/><path style="stroke-width:.96;stroke-miterlimit:4;stroke-dasharray:none" id="path33" fill="none" stroke="#000" stroke-linejoin="round" stroke-width=".96" d="M 26.69408,32.08792 H 21.7718 V 11.539 h 4.92228 z"/><path style="stroke-width:.119996" id="path35" fill="#e3e3e3" d="M 31.51714,32.08792 H 26.59607 V 11.539 h 4.92107 z"/><path id="path37" fill="none" stroke="#000" stroke-linejoin="round" stroke-width=".96" d="M 31.51714,32.08792 H 26.59607 V 11.539 h 4.92107 z"/><path style="stroke-width:.119996" id="path39" fill="#e3e3e3" d="M 36.3402,32.08792 H 31.4155 V 11.539 h 4.92107 z"/><path id="path41" fill="none" stroke="#000" stroke-linejoin="round" stroke-width=".96" d="M 36.3402,32.08792 H 31.4155 V 11.539 h 4.92107 z"/><path style="stroke-width:.119996" id="path43" fill="#e6e6e6" d="m 14.66668,32.08792 -4.6706,-1.5232 6.57635,-19.5041 4.6706,1.5232 z"/><path id="path45" fill="none" stroke="#000" stroke-linejoin="round" stroke-width=".96" d="m 14.66668,32.08792 -4.6706,-1.5232 6.57635,-19.5041 4.6706,1.5232 z"/><path style="stroke-width:.119996" id="path47" fill="#b2b2b2" d="M 10.0348,30.50165 3.4403,25.5572 9.54354,7.2312 l 7.0664,3.76754 z"/><path id="path49" fill="none" stroke="#000" stroke-linejoin="round" stroke-width=".96" d="M 10.0348,30.50165 3.4403,25.5572 9.54354,7.2312 l 7.0664,3.76754 z"/><path style="stroke-width:.119996" id="path51" fill="#fff" d="M 21.24303,12.5862 16.61115,10.99874 9.54475,7.23239 13.57889,8.40335 Z"/><path id="path53" fill="none" stroke="#000" stroke-linejoin="round" stroke-width=".6" d="m 21.24303,12.387785 -4.63188,-1.58746 -7.0664,-3.7663475 4.03414,1.17096 z"/><path id="path993" fill="none" stroke="#000" stroke-linejoin="round" stroke-width=".72" d="m 31.692546,11.443751 h -4.92107 l -8.1917,-4.2554385 h 4.55686 z"/><path id="path995" fill="none" stroke="#000" stroke-linejoin="round" stroke-width=".72" d="m 26.910801,11.443751 h -4.92107 l -8.1917,-4.2554385 h 4.55686 z"/></svg>