<svg xmlns="http://www.w3.org/2000/svg" xmlns:svg="http://www.w3.org/2000/svg" xmlns:xlink="http://www.w3.org/1999/xlink" id="svg77" width="40" height="40" version="1.1"><metadata id="metadata81"/><defs id="defs13"><linearGradient id="c" x2="1" gradientTransform="matrix(-68.102,117.955,117.955,68.102,336.697,417.529)" gradientUnits="userSpaceOnUse"><stop id="stop1013" offset="0" stop-color="#a3a5a8"/><stop id="stop1015" offset="1" stop-color="#231f20"/></linearGradient><clipPath id="a"><path id="path2" d="M0 792h612V0H0z"/></clipPath><clipPath id="b"><path id="path5" d="M267.6 560.9h45.02V403.63H267.6z"/></clipPath><linearGradient id="c-7" x2="1" gradientTransform="matrix(-68.102,117.955,117.955,68.102,336.697,417.529)" gradientUnits="userSpaceOnUse"><stop id="stop8" offset="0" stop-color="#a3a5a8"/><stop id="stop10" offset="1" stop-color="#231f20"/></linearGradient><linearGradient id="linearGradient1003" x1="18.477" x2="19.986" y1="27.68" y2="10.76" gradientUnits="userSpaceOnUse" xlink:href="#c-7"/></defs><path id="path23" fill="#fff" d="m 36.63302,11.5628 h -4.92107 l -8.1917,-4.25544 h 4.55686 z" style="stroke-width:.119996"/><path id="path25" fill="none" stroke="#000" stroke-linejoin="round" stroke-width=".72" d="m 36.474288,11.443751 h -4.92107 l -8.1917,-4.2554385 h 4.55686 z"/><path id="path27" fill="#fff" d="m 13.64786,26.44018 8.12515,5.74294 V 11.5866 L 13.64907,7.2074 Z" style="stroke-width:.119996;fill-opacity:1;fill:url(#linearGradient1003)"/><path id="path29" fill="none" stroke="#000" stroke-linejoin="round" stroke-width=".72" d="m 13.64786,26.44018 8.12515,5.74294 V 11.5866 L 13.64907,7.2074 Z"/><path id="path39" fill="#e3e3e3" d="m 36.340201,32.08792 h -14.5684 V 11.539 h 14.557662 z" style="stroke-width:.119996"/><path id="path1024" d="M 21.825096,16.060849 H 36.463879" style="fill:none;stroke:#999;stroke-width:1px;stroke-linecap:butt;stroke-linejoin:miter;stroke-opacity:1"/><path style="fill:none;stroke:#999;stroke-width:1px;stroke-linecap:butt;stroke-linejoin:miter;stroke-opacity:1" id="path1026" d="M 21.825096,31.117883 H 36.463879"/><path id="path33" fill="none" stroke="#000" stroke-linejoin="round" stroke-width=".96" d="M 26.69408,32.08792 H 21.7718 V 11.539 h 4.92228 z" style="stroke-width:.96;stroke-miterlimit:4;stroke-dasharray:none"/><path id="path37" fill="none" stroke="#000" stroke-linejoin="round" stroke-width=".96" d="M 31.51714,32.08792 H 26.59607 V 11.539 h 4.92107 z"/><path id="path41" fill="none" stroke="#000" stroke-linejoin="round" stroke-width=".96" d="M 36.3402,32.08792 H 31.4155 V 11.539 h 4.92107 z"/><path id="path43" fill="#e6e6e6" d="m 14.66668,32.08792 -4.6706,-1.5232 6.57635,-19.5041 4.6706,1.5232 z" style="stroke-width:.119996"/><path id="path47" fill="#b2b2b2" d="M 10.0348,30.50165 3.4403,25.5572 9.54354,7.2312 l 7.0664,3.76754 z" style="stroke-width:.119996"/><path id="path49" fill="none" stroke="#000" stroke-linejoin="round" stroke-width=".96" d="M 10.0348,30.50165 3.4403,25.5572 9.54354,7.2312 l 7.0664,3.76754 z"/><path id="path51" fill="#fff" d="M 21.24303,12.5862 16.61115,10.99874 9.54475,7.23239 13.57889,8.40335 Z" style="stroke-width:.119996"/><path style="fill:#fff;fill-opacity:1" id="path53" fill="none" stroke="#000" stroke-linejoin="round" stroke-width=".6" d="m 21.24303,12.387785 -4.63188,-1.58746 -7.0664,-3.7663475 4.03414,1.17096 z"/><path style="fill:#fff;fill-opacity:1" id="path993" fill="none" stroke="#000" stroke-linejoin="round" stroke-width=".72" d="m 31.692546,11.443751 h -4.92107 l -8.1917,-4.2554385 h 4.55686 z"/><path style="fill:#fff;fill-opacity:1" id="path995" fill="none" stroke="#000" stroke-linejoin="round" stroke-width=".72" d="m 26.910801,11.443751 h -4.92107 l -8.1917,-4.2554385 h 4.55686 z"/><path style="fill:none;stroke:#000;stroke-width:1px;stroke-linecap:butt;stroke-linejoin:miter;stroke-opacity:1" id="path1018" d="M 21.825096,16.996205 H 36.463879"/><circle style="fill:#333;stroke:none;stroke-width:.959999;stroke-miterlimit:4;stroke-dasharray:none" id="path1028" cx="24.233" cy="28.979" r=".5"/><circle id="circle1030" cx="29.057" cy="28.979" r=".5" style="fill:#333;stroke:none;stroke-width:.959999;stroke-miterlimit:4;stroke-dasharray:none"/><circle style="fill:#333;stroke:none;stroke-width:.959999;stroke-miterlimit:4;stroke-dasharray:none" id="circle1032" cx="33.878" cy="28.979" r=".5"/><g id="g928" transform="rotate(18.45373,54.504239,-284.77162)"><path id="path39-3" fill="#e3e3e3" d="m 117.08223,28.373319 h -4.9247 V 7.8243993 h 4.92107 z" style="stroke-width:.0697671"/><path id="path1024-9" d="m 111.92074,12.346248 h 5.28517" style="fill:none;stroke:#999;stroke-width:1px;stroke-linecap:butt;stroke-linejoin:miter;stroke-opacity:1"/><path style="fill:none;stroke:#999;stroke-width:1px;stroke-linecap:butt;stroke-linejoin:miter;stroke-opacity:1" id="path1026-9" d="m 112.30097,27.403282 h 4.90494"/><path id="path41-8" fill="none" stroke="#000" stroke-linejoin="round" stroke-width=".96" d="m 117.08223,28.373319 h -4.9247 V 7.8243993 h 4.92107 z"/><path style="fill:none;stroke:#000;stroke-width:.999998px;stroke-linecap:butt;stroke-linejoin:miter;stroke-opacity:1" id="path1018-8" d="m 112.03481,13.281604 h 5.1711"/><circle style="fill:#333;stroke:none;stroke-width:.959999;stroke-miterlimit:4;stroke-dasharray:none" id="circle1032-8" cx="114.62" cy="25.264" r=".5"/></g><path style="fill:#fff;fill-opacity:1" id="path872" fill="none" stroke="#000" stroke-linejoin="round" stroke-width=".72" d="m 36.474288,11.443751 h -4.92107 l -8.1917,-4.2554385 h 4.55686 z"/></svg>