<svg xmlns="http://www.w3.org/2000/svg" xmlns:svg="http://www.w3.org/2000/svg" id="svg911" width="40" height="40" version="1.1"><metadata id="metadata915"/><defs id="defs855"><clipPath id="a" clipPathUnits="userSpaceOnUse"><path id="path833" d="M183.16 455.44h29V321.11h-29z"/></clipPath><clipPath id="b" clipPathUnits="userSpaceOnUse"><path id="path836" d="M205.16 375.1H434.5v-54.33H205.16z"/></clipPath><clipPath id="c" clipPathUnits="userSpaceOnUse"><path id="path839" d="M288.83 482.44h62.33V331.77h-62.33z"/></clipPath><clipPath id="e" clipPathUnits="userSpaceOnUse"><path id="path842" d="M191.5 479.78h76V332.44h-76z"/></clipPath><linearGradient id="d" x1="0" x2="1" y1="0" y2="0" gradientTransform="scale(-35.14453 35.14453) rotate(-15 39.719 42.426)" gradientUnits="userSpaceOnUse" spreadMethod="pad"><stop id="stop845" offset="0" stop-color="#fff"/><stop id="stop847" offset="1" stop-color="#231f20"/></linearGradient><linearGradient id="f" x1="0" x2="1" y1="0" y2="0" gradientTransform="scale(-60.02686 60.02686) rotate(-15 24.083 19.422)" gradientUnits="userSpaceOnUse" spreadMethod="pad"><stop id="stop850" offset="0" stop-color="#fff"/><stop id="stop852" offset="1" stop-color="#231f20"/></linearGradient></defs><path id="path857" fill="#800101" fill-rule="evenodd" d="M31.95 22.07a7.86 7.86 0 11.01-15.71 7.86 7.86 0 010 15.7"/><path id="path859" style="line-height:1.25;-inkscape-font-specification:lato" fill="#fff" d="M28.45 9.86c.38-.18.38-.18.77-.24a4.08 4.08 0 013.07.73c.74.4 1.46.6 2.16.6.34 0 .67-.04 1-.13v4.94a4.9 4.9 0 01-3.52-.32 4.34 4.34 0 00-1.87-.5c-.35 0-.67.06-.98.19v3.73h-.63z" font-family="lato" font-size="18" font-weight="400" letter-spacing="0" word-spacing="0"/><path id="path861" fill="none" stroke="#fff" stroke-linejoin="round" stroke-miterlimit="10" stroke-width=".399" d="M31.95 22.07a7.86 7.86 0 11.01-15.71 7.86 7.86 0 010 15.7z"/><path id="path863" fill="#3f3f3f" d="M18.07 32.73H3.77L.55 12.4h12.68z"/><path id="path865" fill="none" stroke="#000" stroke-linecap="round" stroke-linejoin="round" stroke-width="1.104" d="M18.07 32.73H3.77L.55 12.4h12.68z"/><path id="path867" fill="#3f3f3f" d="M24.15 32.73s-1.11.56-3.15.56c-2.03 0-2.85-.56-2.85-.56L13.3 12.4s.52.28 2.85.28 3.15-.28 3.15-.28z"/><path id="path869" fill="none" stroke="#000" stroke-linecap="round" stroke-linejoin="round" stroke-width="1.104" d="M24.15 32.73s-1.11.56-3.15.56c-2.03 0-2.85-.56-2.85-.56L13.3 12.4s.52.28 2.85.28 3.15-.28 3.15-.28z"/><path id="path871" fill="#3f3f3f" d="M38.26 32.73H24.09L19.26 12.4H31.8z"/><path id="path873" fill="none" stroke="#000" stroke-linecap="round" stroke-linejoin="round" stroke-width="1.104" d="M38.26 32.73H24.09L19.26 12.4H31.8z"/><path id="path875" fill="#fff" d="M23.87 31.85H17.9s-1.67-.72-3.53-.72c-1.85 0-9.66.9-9.66.9L1.75 13.25c2.87-1 4.82-3.73 9.88-3.76a4.76 4.76 0 014.7 3.22s.84-2.91 4.9-3.17c5.33-.32 6.16 2.44 9.54 3.05l6.1 19.26S29.6 31 28.17 31c-1.43 0-4.3.84-4.3.84"/><path id="path877" fill="none" stroke="#000" stroke-linecap="round" stroke-linejoin="round" stroke-width=".689" d="M23.87 31.85H17.9s-1.67-.72-3.53-.72c-1.85 0-9.66.9-9.66.9L1.75 13.25c2.87-1 4.82-3.73 9.88-3.76a4.76 4.76 0 014.7 3.22s.84-2.91 4.9-3.17c5.33-.32 6.16 2.44 9.54 3.05l6.1 19.26S29.6 31 28.17 31c-1.43 0-4.3.84-4.3.84z"/><g id="g881" clip-path="url(#a)" transform="matrix(.13797 0 0 -.13797 -23.411 76.149)"><path id="path879" fill="#ccc" d="M183.16 455.44l7-1 22-122-7-11.33z"/></g><g id="g885" clip-path="url(#b)" transform="matrix(.13797 0 0 -.13797 -23.411 76.149)"><path id="path883" fill="#ccc" d="M205.16 321.1l12 21 82.67 33 21.33-13.33 25.67 12.67 49-14.67 29.45-28.33 9.22-9.33-63.67 5-26-6-45.67-.34-21.33 6.34z"/></g><path id="path887" fill="#fff" d="M3.13 13.59l2.69 16.9c3.22-.99 4.36-4.02 10.76-4.02 4.06 0 4.54 4.12 4.54 4.12s.66-3.82 4.54-3.82c5.54 0 6.78 2.68 9.47 3.6L29.9 13.2"/><path id="path889" fill="none" stroke="#000" stroke-linecap="round" stroke-linejoin="round" stroke-width=".552" d="M3.13 13.59l2.69 16.9c3.22-.99 4.36-4.02 10.76-4.02 4.06 0 4.54 4.12 4.54 4.12s.66-3.82 4.54-3.82c5.54 0 6.78 2.68 9.47 3.6L29.9 13.2"/><path id="path891" fill="none" stroke="#000" stroke-linecap="round" stroke-linejoin="round" stroke-width=".689" d="M16.34 12.71l4.78 17.76"/><g id="g895" clip-path="url(#c)" opacity=".29" transform="matrix(.13797 0 0 -.13797 -23.411 76.149)"><path id="path893" fill="url(#d)" d="M323.5 331.77l-34.67 129.34s8.67 20.67 30.67 21.33l31.66-124.33c-24.66-1.33-27.66-26.33-27.66-26.33"/></g><path id="path897" fill="#8c8c8c" d="M19.38 29.8s-.5-2.05-2.09-2.1c-2.57-.06-3.7.42-6.46 1.48 0 0 4.65-.95 5.98-.79 1.88.23 2.45 1.23 2.45 1.23M22.97 29.6s.83-1.44 2.2-1.62c2.12-.27 4.21 1.06 5.53 1.24 0 0-4.62-.73-5.36-.57-1.24.28-2.37.95-2.37.95"/><path id="path899" fill="#8c8c8c" d="M18.56 30.6s-.26-1.2-1.15-1.33c-2.44-.37-7.04.96-7.04.96s4.92-.73 6.67-.36a3.8 3.8 0 011.52.73M23.75 30.56s.5-1.04 1.34-1.1c2.66-.24 6.48.73 6.48.73s-4.64-.42-6.62-.14c-.67.1-1.2.5-1.2.5"/><g id="g903" clip-path="url(#e)" opacity=".19" transform="matrix(.13797 0 0 -.13797 -23.411 76.149)"><path id="path901" fill="url(#f)" d="M212.16 332.44l-20.66 126 17.66 9.67 25.67 11.67 32.67-122-25-11-16.34-10.34z"/></g><path id="path905" fill="#800101" fill-rule="evenodd" d="M31.95 22.07a7.86 7.86 0 11.01-15.71 7.86 7.86 0 010 15.7" opacity=".78"/><path id="path907" fill="none" stroke="#fff" stroke-linejoin="round" stroke-miterlimit="10" stroke-width=".399" d="M31.95 22.07a7.86 7.86 0 11.01-15.71 7.86 7.86 0 010 15.7z"/><path id="path909" fill="#fff" d="M28.45 9.86c.38-.18.38-.18.77-.24a4.08 4.08 0 013.07.73c.74.4 1.46.6 2.16.6.34 0 .67-.04 1-.13v4.94a4.9 4.9 0 01-3.52-.32 4.34 4.34 0 00-1.87-.5c-.35 0-.67.06-.98.19v3.73h-.63z" font-family="lato" font-size="18" font-weight="400" letter-spacing="0" word-spacing="0" style="line-height:1.25;-inkscape-font-specification:lato"/></svg>